<svg width="50" height="51" viewBox="0 0 50 51" fill="none" xmlns="http://www.w3.org/2000/svg">
<g clip-path="url(#clip0_175_343)">
<path d="M25 50.7275C38.8071 50.7275 50 39.5347 50 25.7275C50 11.9204 38.8071 0.727539 25 0.727539C11.1929 0.727539 0 11.9204 0 25.7275C0 39.5347 11.1929 50.7275 25 50.7275Z" fill="#F0F0F0"/>
<path d="M33.6959 25.7278C33.6959 27.9018 29.8027 33.3365 25.0003 33.3365C20.1979 33.3365 16.3047 27.9018 16.3047 25.7278C16.3047 20.9253 20.1979 17.0322 25.0003 17.0322C29.8027 17.0322 33.6959 20.9253 33.6959 25.7278Z" fill="#D80027"/>
<path d="M33.6959 25.7275C33.6959 30.5301 29.8027 34.4231 25.0003 34.4231C20.1979 34.4231 16.3047 30.5301 16.3047 25.7275" fill="#0052B4"/>
<path d="M34.2158 33.4141L36.5212 31.1086L38.0582 32.6456L35.7528 34.951L34.2158 33.4141Z" fill="black"/>
<path d="M30.373 37.2568L32.6785 34.9514L34.2154 36.4884L31.91 38.7938L30.373 37.2568Z" fill="black"/>
<path d="M38.8271 38.0244L41.1326 35.719L42.6695 37.256L40.3641 39.5614L38.8271 38.0244Z" fill="black"/>
<path d="M34.9844 41.8672L37.2898 39.5618L38.8268 41.0987L36.5213 43.4042L34.9844 41.8672Z" fill="black"/>
<path d="M36.5215 35.7197L38.8269 33.4143L40.3639 34.9513L38.0584 37.2567L36.5215 35.7197Z" fill="black"/>
<path d="M32.6797 39.5615L34.9851 37.2561L36.5221 38.7931L34.2167 41.0985L32.6797 39.5615Z" fill="black"/>
<path d="M38.8379 18.0459L32.6901 11.8981L34.2271 10.3611L40.3749 16.5089L38.8379 18.0459Z" fill="black"/>
<path d="M32.6885 16.5088L30.3831 14.2034L31.92 12.6665L34.2254 14.9719L32.6885 16.5088Z" fill="black"/>
<path d="M36.5312 20.3525L34.2258 18.0471L35.7627 16.5102L38.0681 18.8156L36.5312 20.3525Z" fill="black"/>
<path d="M37.2988 11.8975L34.9934 9.59205L36.5304 8.05508L38.8358 10.3605L37.2988 11.8975Z" fill="black"/>
<path d="M41.1436 15.7412L38.8381 13.4358L40.3751 11.8988L42.6805 14.2042L41.1436 15.7412Z" fill="black"/>
<path d="M8.8623 35.7148L15.0101 41.8626L13.4731 43.3996L7.32534 37.2518L8.8623 35.7148Z" fill="black"/>
<path d="M15.0098 37.251L17.3152 39.5564L15.7783 41.0933L13.4729 38.7879L15.0098 37.251Z" fill="black"/>
<path d="M11.168 33.4092L13.4734 35.7146L11.9364 37.2516L9.631 34.9461L11.168 33.4092Z" fill="black"/>
<path d="M13.4736 31.1035L19.6214 37.2513L18.0845 38.7883L11.9367 32.6405L13.4736 31.1035Z" fill="black"/>
<path d="M15.0098 9.58691L8.86197 15.7347L7.32501 14.1977L13.4728 8.04995L15.0098 9.58691Z" fill="black"/>
<path d="M17.3154 11.8926L11.1676 18.0404L9.63067 16.5034L15.7785 10.3556L17.3154 11.8926Z" fill="black"/>
<path d="M19.623 14.1992L13.4753 20.347L11.9384 18.8101L18.0861 12.6623L19.623 14.1992Z" fill="black"/>
</g>
<defs>
<clipPath id="clip0_175_343">
<rect width="50" height="50" fill="white" transform="translate(0 0.727539)"/>
</clipPath>
</defs>
</svg>


