<svg width="50" height="51" viewBox="0 0 50 51" fill="none" xmlns="http://www.w3.org/2000/svg">
<g clip-path="url(#clip0_175_343)">
<path d="M35.87 3.2082C32.5833 1.61895 28.896 0.727539 25.0005 0.727539C21.105 0.727539 17.4177 1.61895 14.131 3.2082L11.957 25.7275L14.131 48.2469C17.4177 49.8361 21.105 50.7275 25.0005 50.7275C28.896 50.7275 32.5833 49.8361 35.87 48.2469L38.0439 25.7275L35.87 3.2082Z" fill="#D80027"/>
<path d="M24.9994 17.0322L27.1576 23.6747H34.1428L28.492 27.7806L30.6503 34.4234L24.9994 30.3179L19.3485 34.4234L21.5072 27.7806L15.8564 23.6747H22.8411L24.9994 17.0322Z" fill="#FFDA44"/>
<path d="M14.1305 3.20898C5.76816 7.25254 0 15.8159 0 25.7274C0 35.639 5.76816 44.2023 14.1305 48.2459V3.20898Z" fill="#496E2D"/>
<path d="M35.8691 3.20898V48.2459C44.2314 44.2023 49.9996 35.6389 49.9996 25.7274C49.9996 15.816 44.2314 7.25254 35.8691 3.20898Z" fill="#FFDA44"/>
</g>
<defs>
<clipPath id="clip0_175_343">
<rect width="50" height="50" fill="white" transform="translate(0 0.727539)"/>
</clipPath>
</defs>
</svg>
