<svg width="50" height="51" viewBox="0 0 50 51" fill="none" xmlns="http://www.w3.org/2000/svg">
<g clip-path="url(#clip0_175_343)">
<path d="M0 25.7279C0 28.7859 0.550098 31.7152 1.55498 34.4235L25 35.5105L48.445 34.4236C49.45 31.7152 50 28.7859 50 25.7279C50 22.6699 49.45 19.7406 48.445 17.0323L25 15.9453L1.55498 17.0322C0.550098 19.7406 0 22.6699 0 25.7279H0Z" fill="#FFDA44"/>
<path d="M24.9997 0.727539C14.2506 0.727539 5.08701 7.51191 1.55469 17.0319H48.4448C44.9124 7.51191 35.7488 0.727539 24.9997 0.727539V0.727539Z" fill="#D80027"/>
<path d="M48.4447 34.4229H1.55469C5.08701 43.9428 14.2506 50.7272 24.9997 50.7272C35.7488 50.7272 44.9124 43.9428 48.4447 34.4229Z" fill="#496E2D"/>
<path d="M24.9994 17.0322L27.1576 23.6748H34.1428L28.4921 27.7806L30.6503 34.4234L24.9994 30.318L19.3485 34.4234L21.5071 27.7806L15.8564 23.6748H22.8412L24.9994 17.0322Z" fill="black"/>
</g>
<defs>
<clipPath id="clip0_175_343">
<rect width="50" height="50" fill="white" transform="translate(0 0.727539)"/>
</clipPath>
</defs>
</svg>

