<svg width="50" height="51" viewBox="0 0 50 51" fill="none" xmlns="http://www.w3.org/2000/svg">
<g clip-path="url(#clip0_175_343)">
<path d="M0 25.7272C0 36.4763 6.78438 45.6398 16.3042 49.1722L18.4782 25.7271L16.3042 2.28223C6.78438 5.81465 0 14.9781 0 25.7272Z" fill="#6DA544"/>
<path d="M50.0005 25.7275C50.0005 11.9205 38.8075 0.727539 25.0005 0.727539C21.9425 0.727539 19.0131 1.27764 16.3047 2.28252V49.1726C19.0131 50.1775 21.9425 50.7275 25.0005 50.7275C38.8075 50.7275 50.0005 39.5346 50.0005 25.7275Z" fill="#D80027"/>
<path d="M16.304 34.4234C21.1065 34.4234 24.9996 30.5303 24.9996 25.7278C24.9996 20.9254 21.1065 17.0322 16.304 17.0322C11.5016 17.0322 7.6084 20.9254 7.6084 25.7278C7.6084 30.5303 11.5016 34.4234 16.304 34.4234Z" fill="#FFDA44"/>
<path d="M11.4131 21.3799V26.8146C11.4131 29.516 13.6029 31.706 16.3044 31.706C19.0059 31.706 21.1957 29.5161 21.1957 26.8146V21.3799H11.4131Z" fill="#D80027"/>
<path d="M16.3043 28.4449C15.4053 28.4449 14.6738 27.7135 14.6738 26.8145V24.6406H17.9347V26.8146C17.9347 27.7135 17.2032 28.4449 16.3043 28.4449Z" fill="#F0F0F0"/>
</g>
<defs>
<clipPath id="clip0_175_343">
<rect width="50" height="50" fill="white" transform="translate(0 0.727539)"/>
</clipPath>
</defs>
</svg>

